<?xml version="1.0" encoding="UTF-8"?>
<svg version="1.1" xmlns="http://www.w3.org/2000/svg" width="161" height="98">
<path d="M0 0 C0.66022156 0.00141495 1.32044312 0.0028299 2.00067139 0.00428772 C4.09945294 0.0098638 6.19812595 0.02241178 8.296875 0.03515625 C9.72395679 0.04017435 11.15104025 0.04473671 12.578125 0.04882812 C16.06774332 0.05982537 19.55729856 0.07707345 23.046875 0.09765625 C22.171875 6.84765625 22.171875 6.84765625 21.046875 9.09765625 C20.386875 9.09765625 19.726875 9.09765625 19.046875 9.09765625 C19.52125 10.27328125 19.995625 11.44890625 20.484375 12.66015625 C23.14634746 19.88551007 23.50667627 25.79846335 21.046875 33.09765625 C17.57512877 39.65539912 12.17073073 44.82718761 5.046875 47.09765625 C-2.57398977 47.93682958 -9.71097733 47.92890753 -15.953125 43.09765625 C-22.01800339 37.62818829 -24.96982567 31.34971608 -25.453125 23.22265625 C-25.18968251 16.36261391 -22.66598947 10.75259479 -17.7578125 5.94921875 C-11.6633685 1.02136799 -7.84135003 -0.03322606 0 0 Z M-10.953125 18.09765625 C-12.01492324 21.81395007 -12.218849 24.12333493 -11.203125 27.84765625 C-9.54874946 30.82553222 -8.21459667 32.72441182 -4.8671875 33.71484375 C-1.03872744 34.1460355 1.37707309 34.38267834 4.984375 32.84765625 C7.34524768 30.84449155 8.82606359 29.12354996 9.48828125 26.046875 C9.67384997 22.58093014 9.73771101 20.10325186 7.7265625 17.17578125 C4.72155122 14.34595 2.57452889 13.19948419 -1.515625 12.41015625 C-5.98576998 13.30418525 -7.92225519 14.70596861 -10.953125 18.09765625 Z " fill="#3937B3" transform="translate(55.953125,1.90234375)"/>
<path d="M0 0 C6.12340916 3.48502708 9.48985602 8.05894515 12 14.5625 C13.41938317 22.36910742 12.64219894 29.21571882 8.37109375 35.98828125 C4.90889832 40.39385419 1.08693069 43.53945208 -4.375 45 C-12.26473655 45.89404725 -19.91215421 46.09193911 -26.375 41 C-32.4139189 35.66585196 -34.9022566 29.41227177 -35.75 21.5 C-34.9952661 14.45581697 -33.00555208 7.68310341 -27.375 3 C-18.84485053 -2.92719945 -9.61212405 -4.2431899 0 0 Z M-20.375 15 C-22.2988314 19.12877058 -22.72610958 21.96617736 -21.25 26.3125 C-19.37560836 28.99912802 -18.29462101 30.5401895 -15.375 32 C-10.9839754 32.56920689 -8.89727617 32.29015343 -5 30.125 C-2.36591621 27.99264646 -1.55117126 27.28101673 -1.1015625 24.01171875 C-0.90527378 19.51972685 -0.86017367 17.65030695 -3.75 14 C-9.44902384 9.6578866 -15.4170771 9.33380241 -20.375 15 Z " fill="#39218E" transform="translate(118.375,4)"/>
<path d="M0 0 C6.12340916 3.48502708 9.48985602 8.05894515 12 14.5625 C13.16502888 20.97015881 12.61364564 25.90977274 10.625 32 C10.13 30.02 10.13 30.02 9.625 28 C7.975 27.67 6.325 27.34 4.625 27 C4.63660156 26.18015625 4.64820313 25.3603125 4.66015625 24.515625 C4.66917969 23.43796875 4.67820313 22.3603125 4.6875 21.25 C4.69910156 20.18265625 4.71070313 19.1153125 4.72265625 18.015625 C4.64010087 15.46631499 4.37117558 13.42066409 3.625 11 C1.315 11 -0.995 11 -3.375 11 C-2.88 12.98 -2.88 12.98 -2.375 15 C-3.220625 14.505 -4.06625 14.01 -4.9375 13.5 C-8.81794451 11.80671512 -11.18400264 11.54280029 -15.375 12 C-18.24646994 13.36997157 -18.24646994 13.36997157 -20.375 15 C-20.375 13.35 -20.375 11.7 -20.375 10 C-19.385 10 -18.395 10 -17.375 10 C-17.375 9.34 -17.375 8.68 -17.375 8 C-19.355 8 -21.335 8 -23.375 8 C-23.045 7.01 -22.715 6.02 -22.375 5 C-21.715 4.67 -21.055 4.34 -20.375 4 C-20.375 3.34 -20.375 2.68 -20.375 2 C-24.54030184 3.74137619 -25.78810044 5.70793058 -27.6015625 9.7265625 C-29.26466165 14.61506606 -29.47915454 18.71832517 -27.19921875 23.4296875 C-24.4784227 27.71828075 -21.62404677 31.12564483 -17.375 34 C-19.5 34.8125 -19.5 34.8125 -22.375 35 C-25.32352257 32.86087578 -27.80537033 30.56962967 -30.375 28 C-31.70832095 30.6666419 -31.04602033 32.16680303 -30.375 35 C-33.01498971 33.68000515 -33.07514976 32.63086688 -34 29.875 C-36.33622441 22.3180292 -35.58617654 16.14029906 -32.375 9 C-25.3257507 -2.10790799 -11.8495644 -5.23088879 0 0 Z " fill="#3426A2" transform="translate(118.375,4)"/>
<path d="M0 0 C6.10274416 1.9722283 11.84704725 1.78958802 17.8125 -0.625 C21.49429073 -2.07833845 24.22665272 -1.93972355 28.1875 -1.5625 C30.6875 0.0625 30.6875 0.0625 32.1875 2.4375 C32.24702697 4.43661394 32.25321792 6.43858 32.1875 8.4375 C19.7069532 14.65404612 8.0546934 17.57500991 -5.7890625 13.578125 C-9.93975937 11.98641234 -13.31921675 10.20367452 -16.8125 7.4375 C-16.3325 2.0375 -16.3325 2.0375 -14.1875 -0.4375 C-9.25472827 -2.77407608 -4.94627059 -1.68499328 0 0 Z " fill="#5780DD" transform="translate(46.8125,51.5625)"/>
<path d="M0 0 C0.56847656 0.22300781 1.13695313 0.44601563 1.72265625 0.67578125 C0.81515625 1.19140625 -0.09234375 1.70703125 -1.02734375 2.23828125 C-4.6082485 4.66515034 -6.85724939 7.58398393 -8.27734375 11.67578125 C-9.16192796 17.38085244 -8.47061406 21.77183042 -5.27734375 26.67578125 C-3.03975728 29.41341527 -1.86210175 30.54627109 1.6328125 31.3203125 C2.67308594 31.37574219 3.71335937 31.43117188 4.78515625 31.48828125 C6.34943359 31.59076172 6.34943359 31.59076172 7.9453125 31.6953125 C10.81054203 31.81845746 10.81054203 31.81845746 13.72265625 30.67578125 C13.72265625 31.33578125 13.72265625 31.99578125 13.72265625 32.67578125 C15.20765625 32.18078125 15.20765625 32.18078125 16.72265625 31.67578125 C16.39265625 33.32578125 16.06265625 34.97578125 15.72265625 36.67578125 C13.74265625 37.17078125 13.74265625 37.17078125 11.72265625 37.67578125 C12.05265625 39.65578125 12.38265625 41.63578125 12.72265625 43.67578125 C14.20765625 44.17078125 14.20765625 44.17078125 15.72265625 44.67578125 C10.83780753 47.11820561 3.4572008 46.40675451 -1.703125 45.02734375 C-8.01366335 42.16003118 -12.40946827 37.17827363 -15.15234375 30.86328125 C-17.30628457 24.12897231 -17.18878716 17.98466085 -14.33984375 11.48828125 C-11.65689451 6.64364149 -6.18945168 -0.88117408 0 0 Z " fill="#70AFEF" transform="translate(47.27734375,3.32421875)"/>
<path d="M0 0 C2.97 0 5.94 0 9 0 C9.10957031 0.67546875 9.21914062 1.3509375 9.33203125 2.046875 C9.49058594 2.93890625 9.64914063 3.8309375 9.8125 4.75 C9.96332031 5.63171875 10.11414063 6.5134375 10.26953125 7.421875 C10.84320874 10.06953737 10.84320874 10.06953737 12.62109375 12.0625 C14 14 14 14 13.953125 16.078125 C11.82133765 22.66297924 8.02930074 27.47088776 2 31 C-1.29296875 31.21484375 -1.29296875 31.21484375 -4 31 C-4.33 29.02 -4.66 27.04 -5 25 C-3.68 24.34 -2.36 23.68 -1 23 C-1 22.01 -1 21.02 -1 20 C-1.66 20 -2.32 20 -3 20 C-3 19.01 -3 18.02 -3 17 C-2.34 17 -1.68 17 -1 17 C-0.07132926 14.21398777 0.16342217 12.38933911 0.1875 9.5 C0.20167969 8.7265625 0.21585937 7.953125 0.23046875 7.15625 C0.13661528 4.70319944 0.13661528 4.70319944 -2 2 C-1.34 2 -0.68 2 0 2 C0 1.34 0 0.68 0 0 Z " fill="#6A8CD9" transform="translate(64,16)"/>
<path d="M0 0 C0.66 -0.00515625 1.32 -0.0103125 2 -0.015625 C4.33520018 0.29451877 5.90114119 1.20057059 8 2.25 C10.35564596 2.69811137 10.35564596 2.69811137 12.75 2.875 C13.54921875 2.94976562 14.3484375 3.02453125 15.171875 3.1015625 C15.77515625 3.15054688 16.3784375 3.19953125 17 3.25 C15.35928557 7.07833368 13.4538303 8.7164868 9.609375 10.484375 C2.84301292 12.46971477 -5.14985979 12.53330403 -11.625 9.5625 C-14.80001952 7.66157629 -16.93837093 5.3424436 -19 2.25 C-18.25234375 2.27320313 -17.5046875 2.29640625 -16.734375 2.3203125 C-15.74953125 2.33835938 -14.7646875 2.35640625 -13.75 2.375 C-12.77546875 2.39820313 -11.8009375 2.42140625 -10.796875 2.4453125 C-6.81036454 2.1669249 -4.07133699 -0.03180732 0 0 Z " fill="#4C61D5" transform="translate(107,37.75)"/>
<path d="M0 0 C7.38753037 2.21522877 12.31124654 6.2544823 16 13 C18.86019225 20.41049812 18.40694521 26.6287303 16 34 C15.67 32.68 15.34 31.36 15 30 C13.35 29.67 11.7 29.34 10 29 C10.05800781 28.2265625 10.11601563 27.453125 10.17578125 26.65625 C10.44982889 20.32966437 10.31676398 15.80841824 6.48828125 10.62109375 C2.54109847 6.32166894 -1.23897667 4.54866889 -7 4 C-7 3.01 -7 2.02 -7 1 C-9.64 1.33 -12.28 1.66 -15 2 C-10.27053556 -1.1529763 -5.53041066 -0.6399379 0 0 Z " fill="#5865C2" transform="translate(113,2)"/>
<path d="M0 0 C9.9 0 19.8 0 30 0 C29 7 29 7 27.6875 8.8125 C22.95407098 12.14343153 19.7336462 12.19112154 14 12 C13.67 10.35 13.34 8.7 13 7 C9.37 6.67 5.74 6.34 2 6 C2.33 4.68 2.66 3.36 3 2 C2.01 1.34 1.02 0.68 0 0 Z " fill="#5170D2" transform="translate(49,2)"/>
<path d="M0 0 C0.99 0.33 1.98 0.66 3 1 C3 1.99 3 2.98 3 4 C3.70125 3.505 4.4025 3.01 5.125 2.5 C8.37119719 0.8063319 10.39340156 0.74837685 14 1 C13.67 2.65 13.34 4.3 13 6 C11.35 6 9.7 6 8 6 C7.566875 6.928125 7.566875 6.928125 7.125 7.875 C6 10 6 10 4 12 C2.93471372 16.70501439 2.73206376 19.70285765 5 24 C5.66 24.99 6.32 25.98 7 27 C2.7273343 26.52525937 0.726198 24.15665032 -2 21 C-4.52736917 16.66736714 -4.71631801 11.88928687 -4 7 C-2.90183058 4.38826665 -1.60703745 2.36033625 0 0 Z " fill="#280B8E" transform="translate(42,8)"/>
<path d="M0 0 C3.53677664 -0.32152515 5.3962104 -0.4131192 8.375 1.625 C10.41735331 4.60997792 10.1261955 6.45681865 10 10 C0.77982294 14.59255968 -7.63613592 17.45060279 -18 17 C-18.33 16.34 -18.66 15.68 -19 15 C-13.555 14.505 -13.555 14.505 -8 14 C-7.67 12.68 -7.34 11.36 -7 10 C-5.625 7.9296875 -5.625 7.9296875 -4 5.875 C-1.78944818 3.07102267 -1.78944818 3.07102267 0 0 Z " fill="#619BEC" transform="translate(69,50)"/>
<path d="M0 0 C0.66 0.33 1.32 0.66 2 1 C1.65066406 1.47050781 1.30132812 1.94101563 0.94140625 2.42578125 C0.48636719 3.04839844 0.03132813 3.67101562 -0.4375 4.3125 C-0.88996094 4.92738281 -1.34242187 5.54226562 -1.80859375 6.17578125 C-4.58601886 10.42842888 -4.81722713 15.10434691 -4 20 C-1.44198145 25.38213971 2.04360658 29.64714563 7 33 C4.875 33.8125 4.875 33.8125 2 34 C-0.94852257 31.86087578 -3.43037033 29.56962967 -6 27 C-7.33332095 29.6666419 -6.67102033 31.16680303 -6 34 C-8.63998971 32.68000515 -8.70014976 31.63086688 -9.625 28.875 C-11.94807348 21.36056844 -11.26295839 15.09338781 -8 8 C-5.78939337 4.63758862 -3.37012857 2.24675238 0 0 Z " fill="#444DCA" transform="translate(94,5)"/>
<path d="M0 0 C2.64 0 5.28 0 8 0 C8.10957031 0.67546875 8.21914062 1.3509375 8.33203125 2.046875 C8.49058594 2.93890625 8.64914063 3.8309375 8.8125 4.75 C8.96332031 5.63171875 9.11414063 6.5134375 9.26953125 7.421875 C9.85025233 10.07420528 9.85025233 10.07420528 11.625 12.125 C12.07875 12.74375 12.5325 13.3625 13 14 C12.1875 17.25 12.1875 17.25 11 20 C10.34 19.67 9.68 19.34 9 19 C9 18.34 9 17.68 9 17 C8.34 17 7.68 17 7 17 C6.505 17.495 6.01 17.99 5.5 18.5 C5.005 18.995 4.51 19.49 4 20 C3.34 20 2.68 20 2 20 C1.06258092 14.72701769 0.94434954 9.7091614 1.0625 4.35546875 C1.16574291 1.97870926 1.16574291 1.97870926 0 0 Z " fill="#505BD6" transform="translate(65,16)"/>
<path d="M0 0 C0.33 0.99 0.66 1.98 1 3 C-0.32 4.32 -1.64 5.64 -3 7 C-1.02 7 0.96 7 3 7 C3 7.66 3 8.32 3 9 C2.01 9 1.02 9 0 9 C0.04125 10.11375 0.0825 11.2275 0.125 12.375 C0 16 0 16 -2 18 C-2.46006346 20.20250992 -2.46006346 20.20250992 -2.625 22.625 C-2.69976562 23.44226563 -2.77453125 24.25953125 -2.8515625 25.1015625 C-2.90054688 25.72804688 -2.94953125 26.35453125 -3 27 C-3.66 27 -4.32 27 -5 27 C-8.6663284 21.61508016 -10.10756966 17.52235464 -9 11 C-7.57312269 6.61254302 -6.00972647 3.73434652 -2.25 1 C-1.5075 0.67 -0.765 0.34 0 0 Z " fill="#24078C" transform="translate(98,5)"/>
<path d="M0 0 C0.33 0.66 0.66 1.32 1 2 C3.52733235 2.65555119 3.52733235 2.65555119 6 3 C6.31274352 6.44017871 6.33853023 8.42597048 4.5625 11.4375 C1.18784291 13.49521774 -0.95301839 13.1308727 -4.78125 12.65234375 C-7.35191339 11.89653251 -8.96005479 10.71077224 -11 9 C-10.37351562 8.60167969 -9.74703125 8.20335937 -9.1015625 7.79296875 C-8.28429687 7.26316406 -7.46703125 6.73335937 -6.625 6.1875 C-5.81289062 5.66542969 -5.00078125 5.14335938 -4.1640625 4.60546875 C-1.76649759 3.01562803 -1.76649759 3.01562803 0 0 Z " fill="#4341C7" transform="translate(122,29)"/>
<path d="M0 0 C5.15461288 1.63404735 8.91196579 3.88666267 12.6875 7.75 C14.44997454 12.11422268 13.92652889 15.46806523 13 20 C12.67 20 12.34 20 12 20 C11.89042969 19.38511719 11.78085938 18.77023438 11.66796875 18.13671875 C11.50941406 17.32847656 11.35085937 16.52023438 11.1875 15.6875 C11.03667969 14.88699219 10.88585937 14.08648437 10.73046875 13.26171875 C9.91399525 10.73370722 9.05422101 9.64960172 7 8 C5.05396726 7.40929986 5.05396726 7.40929986 3 7 C2.38125 6.67 1.7625 6.34 1.125 6 C-1.5382649 4.74669887 -4.09722329 4.39583319 -7 4 C-7 3.01 -7 2.02 -7 1 C-9.64 1.33 -12.28 1.66 -15 2 C-10.27583257 -1.14944496 -5.52492215 -0.65117551 0 0 Z " fill="#5673CE" transform="translate(113,2)"/>
<path d="M0 0 C0.5775 0.21785156 1.155 0.43570312 1.75 0.66015625 C0.8425 1.17578125 -0.065 1.69140625 -1 2.22265625 C-5.72805342 5.38586929 -7.78770866 9.54132094 -9 15.09765625 C-9.0825 15.94328125 -9.165 16.78890625 -9.25 17.66015625 C-9.58 17.66015625 -9.91 17.66015625 -10.25 17.66015625 C-10.3325 18.42328125 -10.415 19.18640625 -10.5 19.97265625 C-11.40667629 23.22157961 -12.53855764 23.81095256 -15.25 25.66015625 C-14.8307734 10.35838538 -14.8307734 10.35838538 -10.25 5.66015625 C-3.40109083 -0.51370643 -3.40109083 -0.51370643 0 0 Z " fill="#6E96DC" transform="translate(47.25,3.33984375)"/>
<path d="M0 0 C0 0.99 0 1.98 0 3 C1.3303125 2.9071875 1.3303125 2.9071875 2.6875 2.8125 C6.35296308 3.01997904 8.07480559 3.84912176 11 6 C11 6.33 11 6.66 11 7 C4.4 7.33 -2.2 7.66 -9 8 C-8.67 6.35 -8.34 4.7 -8 3 C-8.66 3 -9.32 3 -10 3 C-10 2.34 -10 1.68 -10 1 C-6.56484998 0.37542727 -3.50935186 0 0 0 Z " fill="#3E43B6" transform="translate(106,3)"/>
<path d="M0 0 C3 1 3 1 4.1875 3.0625 C4.455625 3.701875 4.72375 4.34125 5 5 C0.06345733 11.70459519 0.06345733 11.70459519 -4.375 12.9375 C-5.24125 12.958125 -6.1075 12.97875 -7 13 C-7.6875 11.25 -7.6875 11.25 -8 9 C-6.6875 6.75 -6.6875 6.75 -5 5 C-4.34 5 -3.68 5 -3 5 C-2.67 4.34 -2.34 3.68 -2 3 C-1.34 2.01 -0.68 1.02 0 0 Z " fill="#577CDA" transform="translate(71,32)"/>
<path d="M0 0 C1.60407328 -0.02708567 3.2082785 -0.04643483 4.8125 -0.0625 C5.70582031 -0.07410156 6.59914063 -0.08570313 7.51953125 -0.09765625 C10 0 10 0 13 1 C14.85227252 1.09357692 16.7078718 1.12993909 18.5625 1.125 C20.01849609 1.12886719 20.01849609 1.12886719 21.50390625 1.1328125 C23.99952953 1.16650953 23.99952953 1.16650953 26 0 C27.80700438 3.97540963 28.68285632 7.63927438 29 12 C28.0625 14.4375 28.0625 14.4375 27 16 C26.34 15.34 25.68 14.68 25 14 C24.67 14 24.34 14 24 14 C23.67 10.04 23.34 6.08 23 2 C20.03 2 17.06 2 14 2 C14 2.66 14 3.32 14 4 C11.83125748 3.49396008 10.00032373 3.00016187 8 2 C6.62657169 1.9310528 5.24997898 1.91532292 3.875 1.9375 C1.956875 1.9684375 1.956875 1.9684375 0 2 C0 1.34 0 0.68 0 0 Z " fill="#3F3BAD" transform="translate(50,14)"/>
<path d="M0 0 C0.99 0.33 1.98 0.66 3 1 C3.20086443 4.71599191 3.1519437 5.77208445 1 9 C0.75729175 12.43307165 0.75729175 12.43307165 0.875 16.1875 C0.90207031 18.09595703 0.90207031 18.09595703 0.9296875 20.04296875 C0.95289063 21.01878906 0.97609375 21.99460937 1 23 C-2.47294006 20.68470663 -2.91050088 19.93895836 -4 16 C-4.82839342 9.40994486 -3.71878202 5.46196109 0 0 Z " fill="#3021A3" transform="translate(42,8)"/>
<path d="M0 0 C0 0.33 0 0.66 0 1 C-5.21979128 1.1799928 -9.07262981 0.97094808 -14 -1 C-15.66621425 0.1645201 -15.66621425 0.1645201 -17 2 C-17.08024658 4.59889783 -17.08024658 4.59889783 -16 7 C-14.03241727 8.36020151 -14.03241727 8.36020151 -12 9 C-12.66 9.66 -13.32 10.32 -14 11 C-16.64 9.35 -19.28 7.7 -22 6 C-21.52 0.6 -21.52 0.6 -19.375 -1.875 C-12.93802742 -4.92409227 -6.32519418 -2.13809381 0 0 Z " fill="#80B1E1" transform="translate(52,53)"/>
<path d="M0 0 C0.33 0.66 0.66 1.32 1 2 C0.505 2.45375 0.01 2.9075 -0.5 3.375 C-2.22609337 4.87635519 -2.22609337 4.87635519 -2 7 C-11.41002278 7.3690205 -11.41002278 7.3690205 -16 5 C-16 3.68 -16 2.36 -16 1 C-14.51886719 1.01740234 -14.51886719 1.01740234 -13.0078125 1.03515625 C-11.72648437 1.04417969 -10.44515625 1.05320313 -9.125 1.0625 C-7.21074219 1.07990234 -7.21074219 1.07990234 -5.2578125 1.09765625 C-2.11335348 1.23176569 -2.11335348 1.23176569 0 0 Z " fill="#7EB5EC" transform="translate(60,34)"/>
<path d="M0 0 C1.4800841 0.11362262 2.95910074 0.24122908 4.4375 0.375 C5.26121094 0.44460938 6.08492188 0.51421875 6.93359375 0.5859375 C7.95646484 0.79089844 7.95646484 0.79089844 9 1 C10.27807583 3.55615166 9.99968789 5.10354243 9.75 7.9375 C9.68296875 8.81277344 9.6159375 9.68804687 9.546875 10.58984375 C9 13 9 13 6 16 C5.67 12.7 5.34 9.4 5 6 C4.34 6 3.68 6 3 6 C2.87625 5.195625 2.7525 4.39125 2.625 3.5625 C2.315625 2.2940625 2.315625 2.2940625 2 1 C1.34 0.67 0.68 0.34 0 0 Z " fill="#250790" transform="translate(113,14)"/>
<path d="M0 0 C1.1446875 1.175625 1.1446875 1.175625 2.3125 2.375 C4.90891805 5.07257717 4.90891805 5.07257717 8 7 C11.14221967 6.68493373 11.14221967 6.68493373 14 6 C14.33 6.66 14.66 7.32 15 8 C11.99060247 9.73830497 9.84057335 10.251248 6.375 10.1875 C5.21097656 10.17783203 5.21097656 10.17783203 4.0234375 10.16796875 C2 10 2 10 0 9 C-0.73075648 6.6859378 -1.40138258 4.35171131 -2 2 C-1.34 1.34 -0.68 0.68 0 0 Z " fill="#322CB4" transform="translate(88,31)"/>
<path d="M0 0 C0.66 0.33 1.32 0.66 2 1 C1.21625 2.03125 0.4325 3.0625 -0.375 4.125 C-2.13569759 6.56630338 -3.09398846 8.28196539 -4.0625 11.1875 C-5 14 -5 14 -7.0625 16 C-9.54114407 18.55860034 -9.68353533 20.51888861 -10 24 C-10.33 24 -10.66 24 -11 24 C-11.4579029 16.82618793 -10.10186744 10.26269834 -5.5 4.5625 C-3 2 -3 2 0 0 Z " fill="#769CDC" transform="translate(94,5)"/>
<path d="M0 0 C0 0.66 0 1.32 0 2 C-8.70008492 6.31817402 -16.30729202 7.84227842 -26 8 C-26.33 7.34 -26.66 6.68 -27 6 C-21.555 5.505 -21.555 5.505 -16 5 C-16 4.34 -16 3.68 -16 3 C-12.71136247 1.90378749 -10.34522867 1.99880546 -6.9375 2.16015625 C-4.11882501 1.92716094 -2.8595275 0 0 0 Z " fill="#81A2DE" transform="translate(77,59)"/>
<path d="M0 0 C2.53541298 0.09086451 5.03554784 0.2370945 7.5625 0.4375 C8.62887695 0.51581055 8.62887695 0.51581055 9.71679688 0.59570312 C11.47821999 0.72574107 13.23916173 0.86226897 15 1 C15.33 2.32 15.66 3.64 16 5 C11.38 5 6.76 5 2 5 C2 4.34 2 3.68 2 3 C1.01 2.34 0.02 1.68 -1 1 C-0.67 0.67 -0.34 0.34 0 0 Z " fill="#4C45C5" transform="translate(98,44)"/>
<path d="M0 0 C1.1875 1.6875 1.1875 1.6875 2 4 C0.625 6.75 0.625 6.75 -1 9 C-2.5843317 8.91231752 -4.16753567 8.80412671 -5.75 8.6875 C-7.07257813 8.60048828 -7.07257813 8.60048828 -8.421875 8.51171875 C-11.32303774 7.9358819 -12.79225607 6.92403852 -15 5 C-13.1128125 5.0928125 -13.1128125 5.0928125 -11.1875 5.1875 C-7.9444785 5.26238023 -7.9444785 5.26238023 -5.25 3.625 C-4.8375 3.08875 -4.425 2.5525 -4 2 C-1.8125 0.8125 -1.8125 0.8125 0 0 Z " fill="#312BB5" transform="translate(126,33)"/>
<path d="M0 0 C0.33 0 0.66 0 1 0 C1.66 4.29 2.32 8.58 3 13 C2.01 13 1.02 13 0 13 C-1.09898702 16.29696105 -0.87124444 17.40494903 -0.0625 20.6875 C0.13214844 21.49574219 0.32679687 22.30398437 0.52734375 23.13671875 C0.68332031 23.75160156 0.83929688 24.36648437 1 25 C-1.60219772 23.69890114 -1.95283344 22.69140177 -3 20 C-3.265625 17.2734375 -3.265625 17.2734375 -3.25 14.375 C-3.25515625 13.41335937 -3.2603125 12.45171875 -3.265625 11.4609375 C-3 9 -3 9 -1 7 C-0.59952556 4.67724823 -0.2602896 2.34260643 0 0 Z " fill="#5569C9" transform="translate(87,14)"/>
<path d="M0 0 C3.96 0 7.92 0 12 0 C11.39457203 6.41753653 11.39457203 6.41753653 9.6875 8.9375 C8 10 8 10 4 10 C4.35049575 6.75791433 4.56221181 5.38472296 7.0625 3.1875 C7.701875 2.795625 8.34125 2.40375 9 2 C6.36 2 3.72 2 1 2 C0.67 1.34 0.34 0.68 0 0 Z " fill="#6898E1" transform="translate(67,2)"/>
<path d="M0 0 C0.33 0.99 0.66 1.98 1 3 C-0.32 4.32 -1.64 5.64 -3 7 C-1.02 7 0.96 7 3 7 C3 7.66 3 8.32 3 9 C-1.12168689 10.62950412 -3.70700357 11.26264601 -8 10 C-6.75587233 6.55472339 -5.45185936 3.74608248 -3 1 C-2.01 0.67 -1.02 0.34 0 0 Z " fill="#2A1798" transform="translate(98,5)"/>
<path d="M0 0 C1.65 0 3.3 0 5 0 C5 1.32 5 2.64 5 4 C6.58323688 4.027193 8.16661062 4.04648306 9.75 4.0625 C10.63171875 4.07410156 11.5134375 4.08570313 12.421875 4.09765625 C14.7818838 4.00826198 16.74498524 3.66912821 19 3 C18.67 4.32 18.34 5.64 18 7 C11.29481414 7.19818283 5.34823202 7.30844801 -1 5 C-0.67 3.35 -0.34 1.7 0 0 Z " fill="#352DA6" transform="translate(56,9)"/>
<path d="M0 0 C5.98680761 0.30701578 10.53170507 3.18407613 15 7 C17.08378326 10.07515894 17.1583497 12.12322201 16.625 15.75 C16.45871094 16.94882812 16.45871094 16.94882812 16.2890625 18.171875 C16.19367188 18.77515625 16.09828125 19.3784375 16 20 C15.67 20 15.34 20 15 20 C14.85304688 19.12988281 14.85304688 19.12988281 14.703125 18.2421875 C13.71015181 13.05475861 12.68830616 8.97202202 9 5 C6.07161504 3.66477784 3.12319191 2.76077752 0 2 C0 1.34 0 0.68 0 0 Z " fill="#749CDA" transform="translate(110,2)"/>
<path d="M0 0 C1 3 1 3 1.8125 6.5 C3.07167945 10.21126575 3.56329781 11.2816489 7 13 C10.15118325 13.72045367 10.15118325 13.72045367 13 14 C13 14.33 13 14.66 13 15 C7.94719594 15.44150715 4.24023847 15.75387044 -0.1875 13.0625 C-2.4449381 9.24820805 -2.18370983 7.15266059 -1.4921875 2.890625 C-1 1 -1 1 0 0 Z " fill="#4A3794" transform="translate(96,22)"/>
<path d="M0 0 C0.33 0 0.66 0 1 0 C1.103125 1.0725 1.20625 2.145 1.3125 3.25 C1.67772205 6.9450795 1.67772205 6.9450795 3.6875 9.0625 C4.120625 9.701875 4.55375 10.34125 5 11 C4.1875 14.25 4.1875 14.25 3 17 C2.34 16.67 1.68 16.34 1 16 C1 15.34 1 14.68 1 14 C0.34 14 -0.32 14 -1 14 C-0.67 9.38 -0.34 4.76 0 0 Z " fill="#4B53C5" transform="translate(73,19)"/>
<path d="M0 0 C-1.36125 0.8353125 -1.36125 0.8353125 -2.75 1.6875 C-5.86904678 3.90682175 -7.65533933 6.03009648 -10 9 C-12.25 10.3125 -12.25 10.3125 -14 11 C-12.22575047 5.6772514 -10.37284255 3.01187834 -5.81640625 -0.25 C-3.50650116 -1.20376726 -2.31385672 -0.8136639 0 0 Z " fill="#5971D1" transform="translate(49,4)"/>
<path d="M0 0 C0.66 0.33 1.32 0.66 2 1 C1.67 2.32 1.34 3.64 1 5 C2.65 5 4.3 5 6 5 C4.875 6.5 4.875 6.5 3 8 C-0.1875 8.1875 -0.1875 8.1875 -3 8 C-3.33 6.02 -3.66 4.04 -4 2 C-2.125 0.9375 -2.125 0.9375 0 0 Z " fill="#5F8DDF" transform="translate(63,39)"/>
<path d="M0 0 C1.98 0 3.96 0 6 0 C6 0.66 6 1.32 6 2 C6.89203125 2.06058594 7.7840625 2.12117188 8.703125 2.18359375 C9.87359375 2.26738281 11.0440625 2.35117187 12.25 2.4375 C13.41015625 2.51871094 14.5703125 2.59992187 15.765625 2.68359375 C18.30977376 2.93247787 20.55953248 3.28114942 23 4 C18.58367583 6.20816209 12.80372901 5.43060202 8 5 C4.95671958 3.96753894 2.74328274 2.72127545 0 1 C0 0.67 0 0.34 0 0 Z " fill="#86C4E8" transform="translate(40,44)"/>
<path d="M0 0 C3 1 3 1 4.1875 3.0625 C4.455625 3.701875 4.72375 4.34125 5 5 C3.6875 7 3.6875 7 2 9 C1.01 9 0.02 9 -1 9 C-1.80967438 6.08517222 -2.21845993 4.53886783 -1.0625 1.6875 C-0.711875 1.130625 -0.36125 0.57375 0 0 Z " fill="#586DCE" transform="translate(71,32)"/>
<path d="M0 0 C0.33 0.66 0.66 1.32 1 2 C1.680625 1.835 2.36125 1.67 3.0625 1.5 C8.17740446 0.62937796 12.96171281 0.77859704 18 2 C18 2.33 18 2.66 18 3 C11.4 3.33 4.8 3.66 -2 4 C-1.34 2.68 -0.68 1.36 0 0 Z " fill="#3934B2" transform="translate(99,7)"/>
<path d="M0 0 C0.680625 0.00773437 1.36125 0.01546875 2.0625 0.0234375 C3.0834375 0.01183594 3.0834375 0.01183594 4.125 0 C6.0625 0.3984375 6.0625 0.3984375 9.0625 3.3984375 C4.4425 3.3984375 -0.1775 3.3984375 -4.9375 3.3984375 C-1.9375 0.3984375 -1.9375 0.3984375 0 0 Z " fill="#557CDE" transform="translate(104.9375,37.6015625)"/>
<path d="M0 0 C0.70769531 0.47566406 1.41539063 0.95132813 2.14453125 1.44140625 C2.85996094 1.91449219 3.57539062 2.38757812 4.3125 2.875 C4.85519531 3.24753906 5.39789063 3.62007812 5.95703125 4.00390625 C5.62703125 4.66390625 5.29703125 5.32390625 4.95703125 6.00390625 C0.92528319 5.72901434 -0.61191506 5.46899049 -3.41796875 2.44140625 C-4.22234375 1.23484375 -4.22234375 1.23484375 -5.04296875 0.00390625 C-2.04296875 -0.99609375 -2.04296875 -0.99609375 0 0 Z " fill="#4138C9" transform="translate(95.04296875,32.99609375)"/>
<path d="M0 0 C0.66 0.33 1.32 0.66 2 1 C2.4140625 3.28515625 2.4140625 3.28515625 2.625 6.0625 C2.69976562 6.98160156 2.77453125 7.90070312 2.8515625 8.84765625 C2.92503906 9.91306641 2.92503906 9.91306641 3 11 C2.34 11 1.68 11 1 11 C0.34 12.32 -0.32 13.64 -1 15 C-0.67 10.05 -0.34 5.1 0 0 Z " fill="#5170D7" transform="translate(126,13)"/>
<path d="M0 0 C1.60407328 -0.02708567 3.2082785 -0.04643483 4.8125 -0.0625 C5.70582031 -0.07410156 6.59914063 -0.08570313 7.51953125 -0.09765625 C10 0 10 0 13 1 C14.72795352 1.06802967 16.45835365 1.08495645 18.1875 1.0625 C19.08855469 1.05347656 19.98960938 1.04445313 20.91796875 1.03515625 C21.94857422 1.01775391 21.94857422 1.01775391 23 1 C23 1.33 23 1.66 23 2 C20.03 2 17.06 2 14 2 C14 2.66 14 3.32 14 4 C11.83125748 3.49396008 10.00032373 3.00016187 8 2 C6.62657169 1.9310528 5.24997898 1.91532292 3.875 1.9375 C1.956875 1.9684375 1.956875 1.9684375 0 2 C0 1.34 0 0.68 0 0 Z " fill="#534EB1" transform="translate(50,14)"/>
<path d="M0 0 C0.556875 0.309375 1.11375 0.61875 1.6875 0.9375 C5.75696199 2.80725281 9.55861838 3.12689662 14 3 C12.02 3.99 12.02 3.99 10 5 C11.32 5.66 12.64 6.32 14 7 C12.4375 7.75 12.4375 7.75 10 8 C5.62326152 5.92680809 2.56373048 4.22261491 0 0 Z " fill="#646BC4" transform="translate(88,40)"/>
<path d="M0 0 C0.88945313 0.07863281 1.77890625 0.15726563 2.6953125 0.23828125 C3.77425781 0.46064453 3.77425781 0.46064453 4.875 0.6875 C5.205 1.3475 5.535 2.0075 5.875 2.6875 C5.28332031 2.65269531 4.69164063 2.61789062 4.08203125 2.58203125 C-0.8851076 2.41186825 -4.03228689 2.51894791 -8.125 5.6875 C-8.125 4.0375 -8.125 2.3875 -8.125 0.6875 C-4.98117176 -0.36044275 -3.25296561 -0.31770947 0 0 Z " fill="#4C3D9B" transform="translate(106.125,13.3125)"/>
<path d="M0 0 C-1.10815825 3.21365891 -1.98529554 3.9914224 -5 5.75 C-8 7 -8 7 -10 7 C-10 6.01 -10 5.02 -10 4 C-9.1028125 3.566875 -9.1028125 3.566875 -8.1875 3.125 C-2.11111111 0 -2.11111111 0 0 0 Z " fill="#666EC8" transform="translate(124,41)"/>
<path d="M0 0 C0.66 0.33 1.32 0.66 2 1 C1.79375 2.051875 1.5875 3.10375 1.375 4.1875 C0.86308959 9.39192254 2.16068738 11.74103107 5 16 C3.125 15.6875 3.125 15.6875 1 15 C-1.09740836 11.85388747 -1.25328219 11.08811922 -1.1875 7.5 C-1.17783203 6.33984375 -1.17783203 6.33984375 -1.16796875 5.15625 C-1 3 -1 3 0 0 Z " fill="#524C91" transform="translate(44,19)"/>
<path d="M0 0 C0.33 1.32 0.66 2.64 1 4 C-2 6 -2 6 -4.1875 5.625 C-4.785625 5.41875 -5.38375 5.2125 -6 5 C-5.25 3.0625 -5.25 3.0625 -4 1 C-1.875 0.25 -1.875 0.25 0 0 Z " fill="#6DA4E8" transform="translate(63,35)"/>
<path d="M0 0 C2.475 0.495 2.475 0.495 5 1 C5 2.32 5 3.64 5 5 C6.32 5.33 7.64 5.66 9 6 C6.36 6 3.72 6 1 6 C0.67 4.02 0.34 2.04 0 0 Z " fill="#4555C4" transform="translate(62,8)"/>
<path d="M0 0 C-2.39509338 2.89932357 -4.31245243 3.50168276 -8 4 C-8 3.34 -8 2.68 -8 2 C-8.66 2 -9.32 2 -10 2 C-10 1.34 -10 0.68 -10 0 C-6.33694766 -0.74926071 -3.57644848 -1.2380014 0 0 Z " fill="#4353CC" transform="translate(121,42)"/>
<path d="M0 0 C0.25 3.3125 0.25 3.3125 0 7 C-2 8.9375 -2 8.9375 -4 10 C-4.36814024 3.49618902 -4.36814024 3.49618902 -2.5625 1.0625 C-1 0 -1 0 0 0 Z " fill="#639BE7" transform="translate(36,19)"/>
<path d="M0 0 C6.93 0.495 6.93 0.495 14 1 C13.67 1.66 13.34 2.32 13 3 C11.20906809 3.08086147 9.41710372 3.13912702 7.625 3.1875 C6.12839844 3.23970703 6.12839844 3.23970703 4.6015625 3.29296875 C3.74304688 3.19628906 2.88453125 3.09960938 2 3 C1.34 2.01 0.68 1.02 0 0 Z " fill="#4659CC" transform="translate(91,41)"/>
<path d="M0 0 C-1.24976756 3.65316671 -1.67098753 4.78065836 -5 7 C-5 6.01 -5 5.02 -5 4 C-5.66 4 -6.32 4 -7 4 C-7 3.34 -7 2.68 -7 2 C-2.25 0 -2.25 0 0 0 Z " fill="#515DB5" transform="translate(69,50)"/>
<path d="M0 0 C0.99 0.66 1.98 1.32 3 2 C2.67 5.96 2.34 9.92 2 14 C1.67 14 1.34 14 1 14 C0.92652344 13.07767578 0.92652344 13.07767578 0.8515625 12.13671875 C0.77679688 11.32847656 0.70203125 10.52023438 0.625 9.6875 C0.55539063 8.88699219 0.48578125 8.08648437 0.4140625 7.26171875 C0.10435574 4.72775559 0.10435574 4.72775559 -2 2 C-1.34 2 -0.68 2 0 2 C0 1.34 0 0.68 0 0 Z " fill="#6F78CA" transform="translate(64,16)"/>
<path d="M0 0 C0.33 0 0.66 0 1 0 C1.33 3.63 1.66 7.26 2 11 C1.01 10.67 0.02 10.34 -1 10 C-1.02689216 8.52093108 -1.04634621 7.04172517 -1.0625 5.5625 C-1.07410156 4.73878906 -1.08570312 3.91507813 -1.09765625 3.06640625 C-1 1 -1 1 0 0 Z " fill="#241689" transform="translate(90,15)"/>
<path d="M0 0 C3.23060419 0.55700072 5.0658223 1.29215122 7 4 C7.1875 6.6875 7.1875 6.6875 7 9 C6.67 8.01 6.34 7.02 6 6 C5.34 6 4.68 6 4 6 C0 1.41176471 0 1.41176471 0 0 Z " fill="#8CBBE8" transform="translate(72,50)"/>
<path d="M0 0 C0.70125 0.474375 1.4025 0.94875 2.125 1.4375 C5.16081337 3.08739857 7.59168786 3.60368464 11 4 C11 4.33 11 4.66 11 5 C7.7 5 4.4 5 1 5 C0.67 3.35 0.34 1.7 0 0 Z " fill="#423387" transform="translate(98,32)"/>
<path d="M0 0 C0.53625 0.2475 1.0725 0.495 1.625 0.75 C-3.79038462 4.81153846 -3.79038462 4.81153846 -6.75 4.5 C-7.28625 4.2525 -7.8225 4.005 -8.375 3.75 C-2.95961538 -0.31153846 -2.95961538 -0.31153846 0 0 Z " fill="#6B72BD" transform="translate(47.375,3.25)"/>
<path d="M0 0 C0.66 0 1.32 0 2 0 C1.11223998 3.69900008 0.05418136 7.34550461 -1 11 C-1.33 11 -1.66 11 -2 11 C-2.28571429 3.57142857 -2.28571429 3.57142857 0 0 Z " fill="#8D9EDF" transform="translate(85,18)"/>
<path d="M0 0 C1.32 1.32 2.64 2.64 4 4 C3.01 5.485 3.01 5.485 2 7 C0.68 5.02 -0.64 3.04 -2 1 C-1.34 0.67 -0.68 0.34 0 0 Z " fill="#4760C3" transform="translate(120,9)"/>
<path d="M0 0 C0.33 0.66 0.66 1.32 1 2 C1.99 2.33 2.98 2.66 4 3 C3.67 3.33 3.34 3.66 3 4 C0.66055264 3.71269945 -1.6739143 3.38063221 -4 3 C-2.68 2.01 -1.36 1.02 0 0 Z " fill="#3B2FC4" transform="translate(116,35)"/>
</svg>
