<svg width="24" height="24" viewBox="0 0 24 24" fill="none" xmlns="http://www.w3.org/2000/svg">
<path fill-rule="evenodd" clip-rule="evenodd" d="M4.00096 17V5C4.00096 4.20435 4.31703 3.44129 4.87964 2.87868C5.44225 2.31607 6.20531 2 7.00096 2H17.001C17.7966 2 18.5597 2.31607 19.1223 2.87868C19.6849 3.44129 20.001 4.20435 20.001 5V17C20.2351 17.0002 20.4617 17.0826 20.6413 17.2327C20.8209 17.3829 20.9422 17.5913 20.9839 17.8216C21.0257 18.052 20.9853 18.2897 20.8698 18.4933C20.7543 18.6969 20.5711 18.8536 20.352 18.936L12.352 21.936C12.1256 22.0208 11.8763 22.0208 11.65 21.936L3.64996 18.936C3.43084 18.8536 3.24757 18.6969 3.13209 18.4933C3.01661 18.2897 2.97623 18.052 3.018 17.8216C3.05976 17.5913 3.18101 17.3829 3.36063 17.2327C3.54025 17.0826 3.76685 17.0002 4.00096 17ZM13.001 6C13.001 5.73478 12.8956 5.48043 12.7081 5.29289C12.5205 5.10536 12.2662 5 12.001 5C11.7357 5 11.4814 5.10536 11.2938 5.29289C11.1063 5.48043 11.001 5.73478 11.001 6V7H10.001C9.33791 7 8.70203 7.26339 8.23319 7.73223C7.76435 8.20107 7.50096 8.83696 7.50096 9.5C7.50096 10.163 7.76435 10.7989 8.23319 11.2678C8.70203 11.7366 9.33791 12 10.001 12H14.001C14.1336 12 14.2607 12.0527 14.3545 12.1464C14.4483 12.2402 14.501 12.3674 14.501 12.5C14.501 12.6326 14.4483 12.7598 14.3545 12.8536C14.2607 12.9473 14.1336 13 14.001 13H9.00096C8.73574 13 8.48139 13.1054 8.29385 13.2929C8.10631 13.4804 8.00096 13.7348 8.00096 14C8.00096 14.2652 8.10631 14.5196 8.29385 14.7071C8.48139 14.8946 8.73574 15 9.00096 15H11.001V16C11.001 16.2652 11.1063 16.5196 11.2938 16.7071C11.4814 16.8946 11.7357 17 12.001 17C12.2662 17 12.5205 16.8946 12.7081 16.7071C12.8956 16.5196 13.001 16.2652 13.001 16V15H14.001C14.664 15 15.2999 14.7366 15.7687 14.2678C16.2376 13.7989 16.501 13.163 16.501 12.5C16.501 11.837 16.2376 11.2011 15.7687 10.7322C15.2999 10.2634 14.664 10 14.001 10H10.001C9.86835 10 9.74117 9.94732 9.6474 9.85355C9.55363 9.75979 9.50096 9.63261 9.50096 9.5C9.50096 9.36739 9.55363 9.24021 9.6474 9.14645C9.74117 9.05268 9.86835 9 10.001 9H15.001C15.2662 9 15.5205 8.89464 15.7081 8.70711C15.8956 8.51957 16.001 8.26522 16.001 8C16.001 7.73478 15.8956 7.48043 15.7081 7.29289C15.5205 7.10536 15.2662 7 15.001 7H13.001V6Z" fill="black"/>
</svg>
