<svg width="24" height="24" viewBox="0 0 24 24" fill="none" xmlns="http://www.w3.org/2000/svg">
<path d="M17.001 2C17.7966 2 18.5597 2.31607 19.1223 2.87868C19.6849 3.44129 20.001 4.20435 20.001 5V17C20.2351 17.0002 20.4617 17.0826 20.6413 17.2327C20.8209 17.3829 20.9422 17.5913 20.9839 17.8216C21.0257 18.052 20.9853 18.2897 20.8698 18.4933C20.7543 18.6969 20.5711 18.8536 20.352 18.936L12.352 21.936C12.1256 22.0208 11.8763 22.0208 11.65 21.936L3.64996 18.936C3.43084 18.8536 3.24757 18.6969 3.13209 18.4933C3.01661 18.2897 2.97623 18.052 3.018 17.8216C3.05976 17.5913 3.18101 17.3829 3.36063 17.2327C3.54025 17.0826 3.76685 17.0002 4.00096 17V5C4.00096 4.20435 4.31703 3.44129 4.87964 2.87868C5.44225 2.31607 6.20531 2 7.00096 2H17.001ZM17.001 4H7.00096C6.75602 4.00003 6.51962 4.08996 6.33658 4.25272C6.15355 4.41547 6.03661 4.63975 6.00796 4.883L6.00096 5V17.682L12.001 19.932L18.001 17.682V5C18.0009 4.75507 17.911 4.51866 17.7482 4.33563C17.5855 4.15259 17.3612 4.03566 17.118 4.007L17.001 4ZM12.001 5C12.2459 5.00003 12.4823 5.08996 12.6653 5.25272C12.8484 5.41547 12.9653 5.63975 12.994 5.883L13.001 6V7H15.001C15.2558 7.00028 15.501 7.09788 15.6863 7.27285C15.8717 7.44782 15.9832 7.68695 15.9981 7.94139C16.0131 8.19584 15.9303 8.44638 15.7667 8.64183C15.6031 8.83729 15.3711 8.9629 15.118 8.993L15.001 9H10.001C9.87601 8.99977 9.75551 9.04633 9.66317 9.13051C9.57084 9.21469 9.51337 9.33039 9.50208 9.45482C9.49079 9.57926 9.5265 9.70341 9.60218 9.80283C9.67785 9.90225 9.78801 9.96974 9.91096 9.992L10.001 10H14.001C14.6508 9.99842 15.2758 10.25 15.7434 10.7013C16.2109 11.1527 16.4844 11.7684 16.5057 12.418C16.527 13.0675 16.2946 13.6998 15.8576 14.1809C15.4207 14.6619 14.8135 14.9539 14.165 14.995L14.001 15H13.001V16C13.0007 16.2549 12.9031 16.5 12.7281 16.6854C12.5531 16.8707 12.314 16.9822 12.0596 16.9972C11.8051 17.0121 11.5546 16.9293 11.3591 16.7657C11.1637 16.6021 11.0381 16.3701 11.008 16.117L11.001 16V15H9.00096C8.74608 14.9997 8.50092 14.9021 8.31559 14.7272C8.13025 14.5522 8.01872 14.313 8.00378 14.0586C7.98885 13.8042 8.07163 13.5536 8.23522 13.3582C8.39881 13.1627 8.63086 13.0371 8.88396 13.007L9.00096 13H14.001C14.1259 13.0002 14.2464 12.9537 14.3387 12.8695C14.4311 12.7853 14.4885 12.6696 14.4998 12.5452C14.5111 12.4207 14.4754 12.2966 14.3997 12.1972C14.3241 12.0977 14.2139 12.0303 14.091 12.008L14.001 12H10.001C9.35107 12.0016 8.72611 11.75 8.25854 11.2987C7.79097 10.8473 7.51755 10.2316 7.49622 9.58205C7.47489 8.93251 7.70734 8.30019 8.1443 7.81912C8.58125 7.33806 9.18837 7.04605 9.83696 7.005L10.001 7H11.001V6C11.001 5.73478 11.1063 5.48043 11.2938 5.29289C11.4814 5.10536 11.7357 5 12.001 5Z" fill="black"/>
</svg>
