<svg width="24" height="24" viewBox="0 0 24 24" fill="none" xmlns="http://www.w3.org/2000/svg">
<path fill-rule="evenodd" clip-rule="evenodd" d="M8.002 4.54917C10.6984 4.34608 13.4067 4.35945 16.101 4.58917L17.725 4.72717C18.3208 4.77812 18.8821 5.02788 19.3189 5.43631C19.7556 5.84474 20.0423 6.38813 20.133 6.97917L20.235 7.64817C20.582 9.91608 20.5496 12.2259 20.139 14.4832C20.0412 15.0231 19.7568 15.5115 19.3355 15.863C18.9142 16.2145 18.3827 16.4067 17.834 16.4062H8.858C8.651 16.4062 8.448 16.4572 8.266 16.5552L4.355 18.6572C4.24071 18.7186 4.11245 18.7493 3.98275 18.7463C3.85304 18.7433 3.72633 18.7067 3.61499 18.6401C3.50364 18.5735 3.41149 18.4792 3.34751 18.3663C3.28354 18.2534 3.24994 18.1259 3.25 17.9962V9.47917C3.25026 8.23605 3.72013 7.03892 4.56552 6.12751C5.41091 5.21611 6.56941 4.65772 7.809 4.56417L8.002 4.54917ZM8 9.49617C7.66848 9.49617 7.35054 9.62787 7.11612 9.86229C6.8817 10.0967 6.75 10.4146 6.75 10.7462C6.75 11.0777 6.8817 11.3956 7.11612 11.6301C7.35054 11.8645 7.66848 11.9962 8 11.9962C8.33152 11.9962 8.64946 11.8645 8.88388 11.6301C9.1183 11.3956 9.25 11.0777 9.25 10.7462C9.25 10.4146 9.1183 10.0967 8.88388 9.86229C8.64946 9.62787 8.33152 9.49617 8 9.49617ZM12 9.49617C11.6685 9.49617 11.3505 9.62787 11.1161 9.86229C10.8817 10.0967 10.75 10.4146 10.75 10.7462C10.75 11.0777 10.8817 11.3956 11.1161 11.6301C11.3505 11.8645 11.6685 11.9962 12 11.9962C12.3315 11.9962 12.6495 11.8645 12.8839 11.6301C13.1183 11.3956 13.25 11.0777 13.25 10.7462C13.25 10.4146 13.1183 10.0967 12.8839 9.86229C12.6495 9.62787 12.3315 9.49617 12 9.49617ZM14.75 10.7462C14.75 10.4146 14.8817 10.0967 15.1161 9.86229C15.3505 9.62787 15.6685 9.49617 16 9.49617C16.3315 9.49617 16.6495 9.62787 16.8839 9.86229C17.1183 10.0967 17.25 10.4146 17.25 10.7462C17.25 11.0777 17.1183 11.3956 16.8839 11.6301C16.6495 11.8645 16.3315 11.9962 16 11.9962C15.6685 11.9962 15.3505 11.8645 15.1161 11.6301C14.8817 11.3956 14.75 11.0777 14.75 10.7462Z" fill="black"/>
</svg>
