<svg width="24" height="24" viewBox="0 0 24 24" fill="none" xmlns="http://www.w3.org/2000/svg">
<path d="M1 7H3V21H17V23H3C2.46957 23 1.96086 22.7893 1.58579 22.4142C1.21071 22.0391 1 21.5304 1 21V7ZM19 1H7C6.46957 1 5.96086 1.21071 5.58579 1.58579C5.21071 1.96086 5 2.46957 5 3V17C5 17.5304 5.21071 18.0391 5.58579 18.4142C5.96086 18.7893 6.46957 19 7 19H21C22.1 19 23 18.1 23 17V5L19 1ZM21 17H7V3H18.17L21 5.83V17ZM14 10C12.34 10 11 11.34 11 13C11 14.66 12.34 16 14 16C15.66 16 17 14.66 17 13C17 11.34 15.66 10 14 10ZM8 4H17V8H8V4Z" fill="black"/>
</svg>
