<svg fill="none" height="24" viewBox="0 0 24 24" width="24" xmlns="http://www.w3.org/2000/svg"><g fill="#6f767e"><path d="m11.5 2c-1.4587 0-2.85764.57946-3.88909 1.61091s-1.61091 2.4304-1.61091 3.88909.57946 2.8576 1.61091 3.8891c1.03145 1.0314 2.43039 1.6109 3.88909 1.6109s2.8576-.5795 3.8891-1.6109c1.0314-1.0315 1.6109-2.43041 1.6109-3.8891s-.5795-2.85764-1.6109-3.88909c-1.0315-1.03145-2.4304-1.61091-3.8891-1.61091zm12.157 13.09-7.072 7.071-4.242-4.243 1.414-1.414 2.828 2.829 5.657-5.657z"/><path d="m12.876 14c-.8939 1.1415-1.3785 2.5502-1.376 4 0 1.509.514 2.897 1.376 4h-10.876v-2c0-1.5913.63214-3.1174 1.75736-4.2426 1.12522-1.1253 2.65134-1.7574 4.24264-1.7574z"/></g></svg>