<svg width="24" height="24" viewBox="0 0 24 24" fill="none" xmlns="http://www.w3.org/2000/svg">
<path d="M8 11C9.06087 11 10.0783 10.5786 10.8284 9.82843C11.5786 9.07828 12 8.06087 12 7C12 5.93913 11.5786 4.92172 10.8284 4.17157C10.0783 3.42143 9.06087 3 8 3C6.93913 3 5.92172 3.42143 5.17157 4.17157C4.42143 4.92172 4 5.93913 4 7C4 8.06087 4.42143 9.07828 5.17157 9.82843C5.92172 10.5786 6.93913 11 8 11ZM17 11C17.7956 11 18.5587 10.6839 19.1213 10.1213C19.6839 9.55871 20 8.79565 20 8C20 7.20435 19.6839 6.44129 19.1213 5.87868C18.5587 5.31607 17.7956 5 17 5C16.2044 5 15.4413 5.31607 14.8787 5.87868C14.3161 6.44129 14 7.20435 14 8C14 8.79565 14.3161 9.55871 14.8787 10.1213C15.4413 10.6839 16.2044 11 17 11ZM4.25 13C3.65326 13 3.08097 13.2371 2.65901 13.659C2.23705 14.081 2 14.6533 2 15.25V15.5C2 15.5 2 20 8 20C9.39 20 10.458 19.759 11.278 19.387C11.093 18.7751 10.9994 18.1392 11 17.5C11 15.843 11.62 14.331 12.64 13.183C12.3593 13.0607 12.0562 12.9984 11.75 13H4.25ZM23 17.5C23 18.9587 22.4205 20.3576 21.3891 21.3891C20.3576 22.4205 18.9587 23 17.5 23C16.0413 23 14.6424 22.4205 13.6109 21.3891C12.5795 20.3576 12 18.9587 12 17.5C12 16.0413 12.5795 14.6424 13.6109 13.6109C14.6424 12.5795 16.0413 12 17.5 12C18.9587 12 20.3576 12.5795 21.3891 13.6109C22.4205 14.6424 23 16.0413 23 17.5ZM18.055 14.42C18.0207 14.2993 17.9479 14.193 17.8478 14.1174C17.7476 14.0417 17.6255 14.0008 17.5 14.0008C17.3745 14.0008 17.2524 14.0417 17.1522 14.1174C17.0521 14.193 16.9793 14.2993 16.945 14.42L16.388 16.208H14.585C14.019 16.208 13.785 16.962 14.242 17.308L15.7 18.413L15.143 20.2C14.968 20.761 15.584 21.228 16.042 20.881L17.5 19.777L18.958 20.881C19.416 21.228 20.032 20.761 19.857 20.201L19.3 18.413L20.758 17.309C21.216 16.962 20.981 16.208 20.415 16.208H18.612L18.055 14.42Z" fill="black"/>
</svg>
