<svg width="24" height="24" viewBox="0 0 24 24" fill="none" xmlns="http://www.w3.org/2000/svg">
<path fill-rule="evenodd" clip-rule="evenodd" d="M11.2924 3.29279C11.48 3.10532 11.7343 3 11.9994 3C12.2646 3 12.5189 3.10532 12.7064 3.29279L18.7064 9.29279L20.7064 11.2928C20.8886 11.4814 20.9894 11.734 20.9871 11.9962C20.9848 12.2584 20.8797 12.5092 20.6942 12.6946C20.5088 12.88 20.258 12.9852 19.9958 12.9875C19.7336 12.9897 19.481 12.8889 19.2924 12.7068L18.9994 12.4138V18.9998C18.9994 19.5302 18.7887 20.0389 18.4136 20.414C18.0386 20.7891 17.5299 20.9998 16.9994 20.9998H13.9994C13.7342 20.9998 13.4799 20.8944 13.2923 20.7069C13.1048 20.5194 12.9994 20.265 12.9994 19.9998V16.9998H10.9994V19.9998C10.9994 20.265 10.8941 20.5194 10.7065 20.7069C10.519 20.8944 10.2646 20.9998 9.99943 20.9998H6.99943C6.469 20.9998 5.96029 20.7891 5.58522 20.414C5.21014 20.0389 4.99943 19.5302 4.99943 18.9998V12.4138L4.70643 12.7068C4.51783 12.8889 4.26523 12.9897 4.00303 12.9875C3.74083 12.9852 3.49002 12.88 3.30461 12.6946C3.1192 12.5092 3.01403 12.2584 3.01176 11.9962C3.00948 11.734 3.11027 11.4814 3.29243 11.2928L5.29243 9.29279L11.2924 3.29279Z" fill="black"/>
</svg>
