<svg width="24" height="24" viewBox="0 0 24 24" fill="none" xmlns="http://www.w3.org/2000/svg">
<path d="M14.4696 1.08289C13.2664 0.360964 12.6648 0 12 0C11.3352 0 10.7336 0.360965 9.53042 1.08289L4.66084 4.00463C2.38434 5.37055 1.24608 6.05349 0.62304 7.1539C0 8.25431 0 9.58173 0 12.2365V17.2012C0 18.6891 0 19.4331 0.163556 20.0435C0.607398 21.6999 1.90123 22.9937 3.55766 23.4376C4.16807 23.6012 4.91204 23.6012 6.4 23.6012C7.14397 23.6012 7.51597 23.6012 7.82117 23.5193C8.64938 23.2974 9.2963 22.6505 9.51822 21.8223C9.6 21.5171 9.6 21.1451 9.6 20.4011V18.8012C9.6 17.6698 9.6 17.1041 9.95147 16.7526C10.3029 16.4012 10.8686 16.4012 12 16.4012C13.1314 16.4012 13.697 16.4012 14.0485 16.7526C14.4 17.1041 14.4 17.6698 14.4 18.8012V20.4011C14.4 21.1451 14.4 21.5171 14.4817 21.8223C14.7037 22.6505 15.3506 23.2974 16.1789 23.5193C16.484 23.6012 16.856 23.6012 17.6 23.6012C19.0879 23.6012 19.8319 23.6012 20.4424 23.4376C22.0987 22.9937 23.3926 21.6999 23.8364 20.0435C24 19.4331 24 18.6891 24 17.2012V12.2365C24 9.58173 24 8.25431 23.377 7.1539C22.7539 6.05349 21.6157 5.37055 19.3392 4.00463L14.4696 1.08289Z" fill="#212121"/>
</svg>
