<svg width="24" height="24" viewBox="0 0 24 24" fill="none" xmlns="http://www.w3.org/2000/svg">
<path d="M17.7549 14.0028C18.5349 14.0028 19.2219 14.3998 19.6249 15.0028H13.4999C12.9369 15.0028 12.4179 15.1888 11.9999 15.5028H6.25291C6.05399 15.5028 5.86323 15.5818 5.72258 15.7225C5.58192 15.8631 5.50291 16.0539 5.50291 16.2528V16.8298C5.50291 17.3648 5.69491 17.8828 6.04291 18.2898C7.13791 19.5728 8.77691 20.3058 10.9999 20.4698V21.5028C10.9999 21.6648 11.0149 21.8221 11.0449 21.9748C8.36791 21.8058 6.30491 20.9088 4.90191 19.2648C4.32229 18.5859 4.00388 17.7225 4.00391 16.8298V16.2518C4.00417 15.6554 4.2412 15.0835 4.66292 14.6618C5.08463 14.2401 5.65652 14.0031 6.25291 14.0028H17.7549ZM11.9999 2.00781C12.6565 2.00781 13.3067 2.13714 13.9133 2.38841C14.52 2.63969 15.0711 3.00799 15.5354 3.47228C15.9997 3.93657 16.368 4.48777 16.6193 5.0944C16.8706 5.70102 16.9999 6.3512 16.9999 7.00781C16.9999 7.66442 16.8706 8.3146 16.6193 8.92123C16.368 9.52786 15.9997 10.0791 15.5354 10.5433C15.0711 11.0076 14.52 11.3759 13.9133 11.6272C13.3067 11.8785 12.6565 12.0078 11.9999 12.0078C10.6738 12.0078 9.40205 11.481 8.46437 10.5433C7.52669 9.60566 6.99991 8.33389 6.99991 7.00781C6.99991 5.68173 7.52669 4.40996 8.46437 3.47228C9.40205 2.5346 10.6738 2.00781 11.9999 2.00781ZM11.9999 3.50781C11.5403 3.50781 11.0852 3.59834 10.6605 3.77423C10.2359 3.95013 9.85004 4.20793 9.52503 4.53294C9.20003 4.85794 8.94222 5.24378 8.76633 5.66842C8.59044 6.09306 8.49991 6.54819 8.49991 7.00781C8.49991 7.46744 8.59044 7.92256 8.76633 8.3472C8.94222 8.77184 9.20003 9.15768 9.52503 9.48269C9.85004 9.80769 10.2359 10.0655 10.6605 10.2414C11.0852 10.4173 11.5403 10.5078 11.9999 10.5078C12.9282 10.5078 13.8184 10.1391 14.4748 9.48269C15.1312 8.82631 15.4999 7.93607 15.4999 7.00781C15.4999 6.07955 15.1312 5.18932 14.4748 4.53294C13.8184 3.87656 12.9282 3.50781 11.9999 3.50781ZM11.9999 17.5028C11.9999 17.105 12.1579 16.7235 12.4392 16.4422C12.7206 16.1608 13.1021 16.0028 13.4999 16.0028H21.4999C21.8977 16.0028 22.2793 16.1608 22.5606 16.4422C22.8419 16.7235 22.9999 17.105 22.9999 17.5028V21.5028C22.9999 21.9006 22.8419 22.2822 22.5606 22.5635C22.2793 22.8448 21.8977 23.0028 21.4999 23.0028H13.4999C13.1021 23.0028 12.7206 22.8448 12.4392 22.5635C12.1579 22.2822 11.9999 21.9006 11.9999 21.5028V17.5028ZM21.9999 18.0028C21.7347 18.0028 21.4803 17.8975 21.2928 17.7099C21.1053 17.5224 20.9999 17.268 20.9999 17.0028H19.9999C19.9999 17.5332 20.2106 18.042 20.5857 18.417C20.9608 18.7921 21.4695 19.0028 21.9999 19.0028V18.0028ZM21.9999 20.0028C21.4695 20.0028 20.9608 20.2135 20.5857 20.5886C20.2106 20.9637 19.9999 21.4724 19.9999 22.0028H20.9999C20.9999 21.7376 21.1053 21.4832 21.2928 21.2957C21.4803 21.1082 21.7347 21.0028 21.9999 21.0028V20.0028ZM13.9999 17.0028C13.9999 17.268 13.8945 17.5224 13.707 17.7099C13.5195 17.8975 13.2651 18.0028 12.9999 18.0028V19.0028C13.5303 19.0028 14.039 18.7921 14.4141 18.417C14.7892 18.042 14.9999 17.5332 14.9999 17.0028H13.9999ZM14.9999 22.0028C14.9999 21.4724 14.7892 20.9637 14.4141 20.5886C14.039 20.2135 13.5303 20.0028 12.9999 20.0028V21.0028C13.2651 21.0028 13.5195 21.1082 13.707 21.2957C13.8945 21.4832 13.9999 21.7376 13.9999 22.0028H14.9999ZM19.2499 19.5028C19.2499 19.0387 19.0655 18.5936 18.7373 18.2654C18.4092 17.9372 17.964 17.7528 17.4999 17.7528C17.0358 17.7528 16.5907 17.9372 16.2625 18.2654C15.9343 18.5936 15.7499 19.0387 15.7499 19.5028C15.7499 19.9669 15.9343 20.4121 16.2625 20.7402C16.5907 21.0684 17.0358 21.2528 17.4999 21.2528C17.964 21.2528 18.4092 21.0684 18.7373 20.7402C19.0655 20.4121 19.2499 19.9669 19.2499 19.5028Z" fill="black"/>
</svg>
