<svg width="24" height="24" viewBox="0 0 24 24" fill="none" xmlns="http://www.w3.org/2000/svg">
<path d="M10.75 8.5C10.75 8.16848 10.8817 7.85054 11.1161 7.61612C11.3505 7.3817 11.6685 7.25 12 7.25C12.3315 7.25 12.6495 7.3817 12.8839 7.61612C13.1183 7.85054 13.25 8.16848 13.25 8.5C13.25 8.83152 13.1183 9.14946 12.8839 9.38388C12.6495 9.6183 12.3315 9.75 12 9.75C11.6685 9.75 11.3505 9.6183 11.1161 9.38388C10.8817 9.14946 10.75 8.83152 10.75 8.5Z" fill="black"/>
<path d="M7.1685 3.73C8.1825 2.759 9.7305 2.25 11.9995 2.25C14.2685 2.25 15.8175 2.759 16.8315 3.73C17.8395 4.695 18.1835 5.99 18.3395 7.231C18.4145 7.833 18.4495 8.457 18.4835 9.053L18.4865 9.119C18.5225 9.746 18.5565 10.344 18.6335 10.915C18.7865 12.062 19.0915 12.988 19.7715 13.665C20.3595 14.249 20.7995 15.15 20.7465 15.999C20.7185 16.447 20.5465 16.915 20.1435 17.262C19.7475 17.604 19.2205 17.75 18.6335 17.75H15.7375C15.6675 18.563 15.4675 19.404 15.0415 20.11C14.4495 21.09 13.4535 21.75 11.9995 21.75C10.5455 21.75 9.5505 21.09 8.9595 20.11C8.5325 19.404 8.3325 18.563 8.2625 17.75H5.3665C4.7705 17.75 4.2375 17.602 3.8405 17.253C3.4375 16.897 3.2745 16.422 3.2525 15.973C3.2125 15.127 3.6575 14.231 4.2285 13.664C4.9085 12.988 5.2135 12.062 5.3665 10.915C5.4425 10.344 5.4775 9.746 5.5125 9.119L5.5165 9.053C5.5505 8.457 5.5855 7.833 5.6605 7.231C5.8165 5.99 6.1605 4.694 7.1685 3.73ZM12.0005 5.75C11.4646 5.74996 10.9403 5.90652 10.4922 6.20042C10.0441 6.49432 9.69156 6.91276 9.47803 7.4043C9.2645 7.89584 9.19925 8.43906 9.29029 8.96719C9.38134 9.49531 9.62471 9.98533 9.9905 10.377C9.79983 10.4863 9.61983 10.6137 9.4505 10.759C8.7165 11.388 8.2505 12.322 8.2505 13.5C8.2505 13.6989 8.32952 13.8897 8.47017 14.0303C8.61082 14.171 8.80159 14.25 9.0005 14.25C9.19941 14.25 9.39018 14.171 9.53083 14.0303C9.67148 13.8897 9.7505 13.6989 9.7505 13.5C9.7505 12.748 10.0345 12.234 10.4265 11.897C10.8345 11.547 11.4035 11.354 12.0005 11.354C12.5975 11.354 13.1665 11.547 13.5745 11.897C13.9665 12.234 14.2505 12.747 14.2505 13.5C14.2505 13.6989 14.3295 13.8897 14.4702 14.0303C14.6108 14.171 14.8016 14.25 15.0005 14.25C15.1994 14.25 15.3902 14.171 15.5308 14.0303C15.6715 13.8897 15.7505 13.6989 15.7505 13.5C15.7505 12.322 15.2845 11.388 14.5505 10.759C14.3826 10.6154 14.2018 10.4875 14.0105 10.377C14.3763 9.98533 14.6197 9.49531 14.7107 8.96719C14.8018 8.43906 14.7365 7.89584 14.523 7.4043C14.3094 6.91276 13.9569 6.49432 13.5088 6.20042C13.0607 5.90652 12.5364 5.74996 12.0005 5.75Z" fill="black"/>
</svg>
