<svg width="24" height="24" viewBox="0 0 24 24" fill="none" xmlns="http://www.w3.org/2000/svg">
<path d="M8 9.5C7.66848 9.5 7.35054 9.6317 7.11612 9.86612C6.8817 10.1005 6.75 10.4185 6.75 10.75C6.75 11.0815 6.8817 11.3995 7.11612 11.6339C7.35054 11.8683 7.66848 12 8 12C8.33152 12 8.64946 11.8683 8.88388 11.6339C9.1183 11.3995 9.25 11.0815 9.25 10.75C9.25 10.4185 9.1183 10.1005 8.88388 9.86612C8.64946 9.6317 8.33152 9.5 8 9.5ZM12 9.5C11.6685 9.5 11.3505 9.6317 11.1161 9.86612C10.8817 10.1005 10.75 10.4185 10.75 10.75C10.75 11.0815 10.8817 11.3995 11.1161 11.6339C11.3505 11.8683 11.6685 12 12 12C12.3315 12 12.6495 11.8683 12.8839 11.6339C13.1183 11.3995 13.25 11.0815 13.25 10.75C13.25 10.4185 13.1183 10.1005 12.8839 9.86612C12.6495 9.6317 12.3315 9.5 12 9.5ZM14.75 10.75C14.75 10.4185 14.8817 10.1005 15.1161 9.86612C15.3505 9.6317 15.6685 9.5 16 9.5C16.3315 9.5 16.6495 9.6317 16.8839 9.86612C17.1183 10.1005 17.25 10.4185 17.25 10.75C17.25 11.0815 17.1183 11.3995 16.8839 11.6339C16.6495 11.8683 16.3315 12 16 12C15.6685 12 15.3505 11.8683 15.1161 11.6339C14.8817 11.3995 14.75 11.0815 14.75 10.75Z" fill="black"/>
<path fill-rule="evenodd" clip-rule="evenodd" d="M16.1 4.58913C13.4061 4.35947 10.6981 4.34609 8.002 4.54913L7.809 4.56413C6.56941 4.65768 5.41091 5.21607 4.56552 6.12747C3.72013 7.03888 3.25026 8.23601 3.25 9.47913V17.9961C3.25011 18.1258 3.28384 18.2532 3.34788 18.3659C3.41193 18.4787 3.5041 18.5729 3.61541 18.6394C3.72673 18.7058 3.85337 18.7423 3.983 18.7453C4.11262 18.7482 4.24079 18.7175 4.355 18.6561L8.265 16.5551C8.44728 16.4571 8.65105 16.4059 8.858 16.4061H17.834C18.966 16.4061 19.936 15.5961 20.139 14.4831C20.551 12.2261 20.583 9.91613 20.235 7.64813L20.133 6.97913C20.0423 6.38809 19.7556 5.8447 19.3189 5.43627C18.8821 5.02784 18.3208 4.77808 17.725 4.72713L16.1 4.58913ZM8.116 6.04513C10.7321 5.84741 13.3599 5.86011 15.974 6.08313L17.598 6.22213C18.134 6.26813 18.57 6.67513 18.651 7.20713L18.754 7.87513C19.0755 9.97852 19.045 12.1207 18.664 14.2141C18.6292 14.4085 18.527 14.5844 18.3754 14.711C18.2238 14.8375 18.0325 14.9066 17.835 14.9061H8.858C8.40357 14.9062 7.95623 15.0189 7.556 15.2341L4.75 16.7421V9.47913C4.75005 8.61431 5.07679 7.78142 5.66479 7.14725C6.25279 6.51308 7.05865 6.12443 7.921 6.05913L8.116 6.04513Z" fill="black"/>
</svg>
