<svg width="24" height="24" viewBox="0 0 24 24" fill="none" xmlns="http://www.w3.org/2000/svg">
<path d="M15.019 17H8.97901M15.019 17H18.633C20.509 17 20.192 15.14 19.243 14.196C15.825 10.801 20.68 3 11.999 3C3.31801 3 8.17401 10.8 4.75601 14.196C3.84301 15.104 3.45401 17 5.36601 17H8.97901M15.019 17C15.019 18.925 14.371 21 11.999 21C9.62701 21 8.97901 18.925 8.97901 17" stroke="black" stroke-width="1.5" stroke-linecap="round" stroke-linejoin="round"/>
<path d="M15 13.4973C15 9.63631 9 9.63631 9 13.4973" stroke="black" stroke-width="1.5" stroke-linecap="round" stroke-linejoin="round"/>
<path d="M12 10.5C12.5304 10.5 13.0391 10.2893 13.4142 9.91421C13.7893 9.53914 14 9.03043 14 8.5C14 7.96957 13.7893 7.46086 13.4142 7.08579C13.0391 6.71071 12.5304 6.5 12 6.5C11.4696 6.5 10.9609 6.71071 10.5858 7.08579C10.2107 7.46086 10 7.96957 10 8.5C10 9.03043 10.2107 9.53914 10.5858 9.91421C10.9609 10.2893 11.4696 10.5 12 10.5Z" stroke="black" stroke-width="1.5" stroke-linecap="round" stroke-linejoin="round"/>
</svg>
