<svg width="24" height="24" viewBox="0 0 24 24" fill="none" xmlns="http://www.w3.org/2000/svg">
<path fill-rule="evenodd" clip-rule="evenodd" d="M16.1789 23.5193C16.484 23.6012 16.856 23.6012 17.6 23.6012C19.0879 23.6012 19.8319 23.6012 20.4424 23.4376C22.0987 22.9937 23.3926 21.6999 23.8364 20.0435C24 19.4331 24 18.6891 24 17.2012V12.2365C24 9.58173 24 8.25431 23.377 7.1539C22.7539 6.05349 21.6157 5.37055 19.3392 4.00463L14.4696 1.08289C13.2664 0.360964 12.6648 0 12 0C11.3352 0 10.7336 0.360965 9.53042 1.08289L4.66084 4.00463C2.38433 5.37055 1.24608 6.05349 0.62304 7.1539C0 8.25431 0 9.58173 0 12.2365V17.2012C0 18.6891 0 19.4331 0.163556 20.0435C0.607398 21.6999 1.90123 22.9937 3.55766 23.4376C4.16807 23.6012 4.91204 23.6012 6.4 23.6012C7.14397 23.6012 7.51597 23.6012 7.82117 23.5193C8.64938 23.2974 9.2963 22.6505 9.51822 21.8223C9.6 21.5171 9.6 21.1451 9.6 20.4011V18.8012C9.6 17.6698 9.6 17.1041 9.95147 16.7526C10.3029 16.4012 10.8686 16.4012 12 16.4012C13.1314 16.4012 13.697 16.4012 14.0485 16.7526C14.4 17.1041 14.4 17.6698 14.4 18.8012V20.4011C14.4 21.1451 14.4 21.5171 14.4817 21.8223C14.7037 22.6505 15.3506 23.2974 16.1789 23.5193ZM12 1.80001L11.9964 1.80029C11.9939 1.80064 11.9851 1.80199 11.968 1.80655C11.9316 1.81629 11.8597 1.84011 11.733 1.89969C11.4505 2.03249 11.0891 2.24684 10.4565 2.62637L5.58694 5.54812C4.41913 6.24881 3.65357 6.71043 3.09295 7.12549C2.56369 7.51735 2.33369 7.78592 2.1894 8.04076C2.04511 8.29561 1.93314 8.63101 1.86943 9.28646C1.80196 9.98073 1.8 10.8747 1.8 12.2365V17.2012C1.8 18.805 1.81546 19.2538 1.90223 19.5776C2.17962 20.6129 2.98826 21.4215 4.02354 21.6989C4.34735 21.7857 4.79616 21.8012 6.4 21.8012C6.7883 21.8012 7.01948 21.8007 7.19312 21.7928C7.30242 21.7878 7.34953 21.781 7.36115 21.7791C7.56344 21.7227 7.72157 21.5646 7.77796 21.3623C7.77989 21.3507 7.78667 21.3035 7.79165 21.1943C7.79957 21.0207 7.8 20.7894 7.8 20.4011V18.8012C7.8 18.7737 7.79999 18.7462 7.79998 18.7185C7.79978 18.2262 7.79958 17.6939 7.85999 17.2446C7.93075 16.7182 8.11276 16.0457 8.67868 15.4798C9.2446 14.9139 9.91705 14.732 10.4434 14.6612C10.8927 14.6007 11.4251 14.6009 11.9173 14.6011C11.945 14.6011 11.9726 14.6011 12 14.6011C12.0274 14.6011 12.055 14.6011 12.0827 14.6011C12.5749 14.6009 13.1072 14.6007 13.5565 14.6612C14.083 14.732 14.7554 14.9139 15.3214 15.4798C15.8873 16.0457 16.0692 16.7182 16.14 17.2446C16.2005 17.6939 16.2002 18.2262 16.2 18.7185C16.2 18.7462 16.2 18.7738 16.2 18.8012V20.4011C16.2 20.7894 16.2005 21.0207 16.2084 21.1943C16.2133 21.3035 16.2202 21.3507 16.2221 21.3623C16.2785 21.5646 16.4365 21.7227 16.6388 21.7791C16.6505 21.781 16.6976 21.7878 16.8068 21.7928C16.9805 21.8007 17.2117 21.8012 17.6 21.8012C19.2038 21.8012 19.6526 21.7857 19.9764 21.6989C21.0118 21.4215 21.8203 20.6129 22.0978 19.5776C22.1845 19.2538 22.2 18.805 22.2 17.2012V12.2365C22.2 10.8747 22.1981 9.98073 22.1305 9.28646C22.0668 8.63101 21.9548 8.29561 21.8106 8.04076C21.6664 7.78592 21.4363 7.51735 20.907 7.12549C20.3465 6.71043 19.5809 6.2488 18.413 5.54812L13.5434 2.62637C12.9109 2.24684 12.5495 2.03249 12.267 1.89969C12.1403 1.84011 12.0684 1.81629 12.032 1.80655C12.015 1.80199 12.0061 1.80064 12.0036 1.80029L12 1.80001Z" fill="#212121"/>
</svg>
